<?xml version="1.0" encoding="UTF-8"?>
<svg width="180px" height="180px" viewBox="0 0 180 180" version="1.1" xmlns="http://www.w3.org/2000/svg" xmlns:xlink="http://www.w3.org/1999/xlink">
  <defs>
    <linearGradient id="bgGradient" x1="0%" y1="0%" x2="100%" y2="100%">
      <stop offset="0%" style="stop-color:#4361EE"/>
      <stop offset="100%" style="stop-color:#805AD5"/>
    </linearGradient>
    <linearGradient id="textGradient" x1="0%" y1="0%" x2="100%" y2="100%">
      <stop offset="0%" style="stop-color:#FFFFFF"/>
      <stop offset="100%" style="stop-color:#F0F0F0"/>
    </linearGradient>
  </defs>
  <g stroke="none" stroke-width="1" fill="none" fill-rule="evenodd">
    <rect fill="url(#bgGradient)" x="0" y="0" width="180" height="180" rx="45"></rect>
    <text font-family="Arial-BoldMT, Arial" font-size="60" font-weight="bold" fill="url(#textGradient)">
      <tspan x="35" y="105">MD</tspan>
    </text>
    <path d="M105,70 L145,70 C147.761,70 150,72.2386 150,75 L150,110 C150,112.761 147.761,115 145,115 L105,115 C102.239,115 100,112.761 100,110 L100,75 C100,72.2386 102.239,70 105,70 Z" stroke="#FFFFFF" stroke-width="4" stroke-linecap="round" stroke-linejoin="round"/>
    <line x1="115" y1="82" x2="135" y2="82" stroke="#FFFFFF" stroke-width="4" stroke-linecap="round"/>
    <line x1="115" y1="92" x2="135" y2="92" stroke="#FFFFFF" stroke-width="4" stroke-linecap="round"/>
    <line x1="115" y1="102" x2="135" y2="102" stroke="#FFFFFF" stroke-width="4" stroke-linecap="round"/>
  </g>
</svg> 