<?xml version="1.0" encoding="UTF-8"?>
<svg width="512px" height="512px" viewBox="0 0 512 512" version="1.1" xmlns="http://www.w3.org/2000/svg" xmlns:xlink="http://www.w3.org/1999/xlink">
  <defs>
    <linearGradient id="bgGradient" x1="0%" y1="0%" x2="100%" y2="100%">
      <stop offset="0%" style="stop-color:#4361EE"/>
      <stop offset="100%" style="stop-color:#805AD5"/>
    </linearGradient>
    <linearGradient id="textGradient" x1="0%" y1="0%" x2="100%" y2="100%">
      <stop offset="0%" style="stop-color:#FFFFFF"/>
      <stop offset="100%" style="stop-color:#F0F0F0"/>
    </linearGradient>
  </defs>
  <g stroke="none" stroke-width="1" fill="none" fill-rule="evenodd">
    <rect fill="url(#bgGradient)" x="0" y="0" width="512" height="512" rx="100"></rect>
    <text font-family="Arial-BoldMT, Arial" font-size="160" font-weight="bold" fill="url(#textGradient)">
      <tspan x="106" y="288">MD</tspan>
    </text>
    <path d="M296,192 L416,192 C421.523,192 426,196.477 426,202 L426,310 C426,315.523 421.523,320 416,320 L296,320 C290.477,320 286,315.523 286,310 L286,202 C286,196.477 290.477,192 296,192 Z" stroke="#FFFFFF" stroke-width="10" stroke-linecap="round" stroke-linejoin="round"/>
    <line x1="330" y1="224" x2="380" y2="224" stroke="#FFFFFF" stroke-width="10" stroke-linecap="round"/>
    <line x1="330" y1="256" x2="380" y2="256" stroke="#FFFFFF" stroke-width="10" stroke-linecap="round"/>
    <line x1="330" y1="288" x2="380" y2="288" stroke="#FFFFFF" stroke-width="10" stroke-linecap="round"/>
  </g>
</svg> 